<svg width="20" height="20" viewBox="0 0 20 20" fill="none" xmlns="http://www.w3.org/2000/svg">
<rect x="0.5" y="0.5" width="19" height="19" rx="2.5" stroke="white"/>
<path d="M11.25 16.6675C11.0667 16.6675 10.9042 16.5467 10.8508 16.3708L8.6525 9.04415L6.6225 13.105C6.55582 13.2375 6.42418 13.3258 6.27582 13.3342C6.12 13.3467 5.98582 13.2733 5.90332 13.1492L4.36 10.8342H0.41668C0.18668 10.8342 0 10.6475 0 10.4175C0 10.1875 0.18668 10.0008 0.41668 10.0008H4.58336C4.72254 10.0008 4.85254 10.07 4.93004 10.1867L6.19836 12.0892L8.37754 7.73165C8.45336 7.57915 8.61254 7.48083 8.78586 7.50333C8.95586 7.51833 9.10004 7.63501 9.14918 7.79833L11.1692 14.5317L13.3417 3.66915C13.3817 3.46833 13.5625 3.31833 13.7675 3.33415C13.9725 3.34333 14.1408 3.49997 14.1642 3.70415L14.9317 10.61L16.0634 10.0442C16.1217 10.0158 16.1859 10.0008 16.25 10.0008H19.5834C19.8134 10.0008 20 10.1875 20 10.4175C20 10.6475 19.8134 10.8342 19.5834 10.8342H16.3484L14.7692 11.6234C14.6475 11.6842 14.505 11.6809 14.3834 11.6167C14.2634 11.5517 14.1842 11.4317 14.1684 11.2967L13.6309 6.46337L11.6584 16.3326C11.6209 16.5209 11.4609 16.6584 11.2692 16.6667C11.2633 16.6675 11.2567 16.6675 11.25 16.6675Z" fill="white"/>
</svg>
