<svg width="36" height="40" viewBox="0 0 36 40" fill="none" xmlns="http://www.w3.org/2000/svg">
<path opacity="0.6" d="M15.5 1.44338C17.047 0.550211 18.953 0.550212 20.5 1.44338L32.8205 8.55662C34.3675 9.44979 35.3205 11.1004 35.3205 12.8868V27.1132C35.3205 28.8996 34.3675 30.5502 32.8205 31.4434L20.5 38.5566C18.953 39.4498 17.047 39.4498 15.5 38.5566L3.17949 31.4434C1.63249 30.5502 0.679491 28.8996 0.679491 27.1132V12.8868C0.679491 11.1004 1.63249 9.44979 3.17949 8.55662L15.5 1.44338Z" fill="#4A4E57"/>
<path d="M25.619 13.1904H10.381C9.06622 13.191 8.00056 14.2566 8 15.5714V24.4618C8.00056 25.7766 9.06622 26.8424 10.381 26.8428H25.619C26.9338 26.8424 27.9994 25.7766 28 24.4618V15.5714C27.9994 14.2566 26.9338 13.191 25.619 13.1904V13.1904ZM10.381 14.1428H25.619C26.3049 14.1447 26.8934 14.6315 27.0238 15.3046L18 20.3333L8.97619 15.3046C9.10658 14.6315 9.69513 14.1447 10.381 14.1428ZM25.619 25.8857H10.381C9.59301 25.8833 8.95461 25.2451 8.95238 24.4572V16.3809L17.7667 21.2952C17.8382 21.3344 17.9183 21.3558 18 21.3571C18.082 21.358 18.1626 21.3366 18.2333 21.2952L27.0476 16.3809V24.4572C27.0471 25.2459 26.4077 25.885 25.619 25.8857Z" fill="#2BBCB6"/>
</svg>
