<svg width="37" height="40" viewBox="0 0 37 40" fill="none" xmlns="http://www.w3.org/2000/svg">
<path fill-rule="evenodd" clip-rule="evenodd" d="M21.7409 0.958866L32.9844 7.44253C35.197 8.72897 36.4835 10.9159 36.4835 13.4888V26.5076C36.4835 29.0805 35.2228 31.2674 32.9844 32.5539L21.7409 39.0375C20.0942 39.9895 18.2417 40.2468 16.5179 39.7579C16.5179 26.5848 16.5179 13.4116 16.5179 0.212723C18.2675 -0.224667 20.0942 0.00689856 21.7409 0.958866ZM19.9913 36.0273L31.2348 29.5436C32.3669 28.8746 32.9844 27.8455 32.9844 26.5076V13.5145C32.9844 12.2024 32.3669 11.1475 31.2348 10.4785L19.9913 3.99486V36.0273ZM13.0188 38.0341L3.49912 32.5539C1.28644 31.2674 0 29.0805 0 26.5076V13.5145C0 10.9417 1.26071 8.7547 3.49912 7.46826L13.0188 1.98802V6.02744L5.24867 10.5043C4.1166 11.1732 3.49912 12.2024 3.49912 13.5403V26.5076C3.49912 27.8198 4.1166 28.8746 5.24867 29.5436L13.0188 34.0204V38.0341Z" fill="#2BBCB6"/>
</svg>
